<?xml version="1.0" standalone="no"?>
<!DOCTYPE svg PUBLIC "-//W3C//DTD SVG 20010904//EN"
 "http://www.w3.org/TR/2001/REC-SVG-20010904/DTD/svg10.dtd">
<svg version="1.0" xmlns="http://www.w3.org/2000/svg"
 width="32.000000pt" height="32.000000pt" viewBox="0 0 32.000000 32.000000"
 preserveAspectRatio="xMidYMid meet">
<metadata>
Created by potrace 1.16, written by Peter Selinger 2001-2019
</metadata>
<g transform="translate(0.000000,32.000000) scale(0.100000,-0.100000)"
fill="#000000" stroke="none">
<path d="M0 160 l0 -160 25 0 25 0 0 160 0 160 -25 0 -25 0 0 -160z"/>
<path d="M124 225 c-4 -9 -2 -27 4 -40 10 -21 8 -26 -8 -35 -52 -28 -67 -87
-31 -128 15 -18 29 -22 85 -22 l66 0 -5 56 c-4 58 -15 79 -44 89 -13 4 -17 16
-17 48 1 36 -2 42 -22 45 -13 2 -25 -3 -28 -13z"/>
</g>
</svg>
