<?xml version="1.0" standalone="no"?>
<!DOCTYPE svg PUBLIC "-//W3C//DTD SVG 20010904//EN"
 "http://www.w3.org/TR/2001/REC-SVG-20010904/DTD/svg10.dtd">
<svg version="1.0" xmlns="http://www.w3.org/2000/svg"
 width="828.000000pt" height="828.000000pt" viewBox="0 0 828.000000 828.000000"
 preserveAspectRatio="xMidYMid meet">
<metadata>
Created by potrace 1.16, written by Peter Selinger 2001-2019
</metadata>
<g transform="translate(0.000000,828.000000) scale(0.100000,-0.100000)"
fill="#000000" stroke="none">
<path d="M0 4140 l0 -4140 650 0 650 0 0 213 c0 116 4 217 8 223 4 6 27 21 50
33 l44 22 -7 61 c-4 36 -20 87 -40 127 -17 36 -37 86 -43 111 -7 31 -11 824
-12 2535 -1 2302 -5 3248 -18 4713 l-2 242 -640 0 -640 0 0 -4140z"/>
<path d="M7520 8255 c0 -22 4 -25 40 -25 27 0 40 -4 40 -14 0 -9 -24 -16 -82
-23 -58 -7 -70 -10 -40 -12 53 -1 56 -21 2 -21 -53 0 -51 -18 3 -23 l42 -4
-42 -1 c-24 -1 -43 -6 -43 -11 0 -6 -19 -12 -42 -14 l-43 -4 43 -1 c53 -2 56
-22 2 -22 -54 0 -51 -20 3 -22 l42 -1 -45 -7 c-25 -4 -37 -8 -27 -8 15 -2 17
-13 17 -82 l0 -80 40 0 40 0 0 -40 0 -40 -40 0 -40 0 0 -40 c0 -29 -4 -40 -15
-40 -12 0 -15 -16 -15 -80 0 -78 1 -80 24 -80 21 0 25 -5 28 -37 3 -38 3 -38
48 -38 62 -1 74 9 20 16 -36 5 -28 6 38 7 67 2 82 -1 82 -13 0 -11 -12 -15
-45 -16 -25 -1 -60 -2 -77 -3 l-33 -1 -3 -77 -3 -78 56 0 55 0 0 -40 c0 -29
-4 -40 -15 -40 -10 0 -15 -10 -15 -34 0 -19 -6 -37 -12 -39 -10 -4 -10 -6 0
-6 7 -1 12 -16 12 -41 l0 -40 40 0 c29 0 40 -4 40 -15 0 -11 -11 -15 -40 -15
-29 0 -40 4 -40 15 0 11 -11 15 -40 15 l-40 0 0 40 0 40 -40 0 -40 0 0 -166 0
-165 67 4 c37 3 73 2 80 0 10 -4 13 -36 13 -119 l0 -114 40 0 40 0 0 -41 c0
-33 3 -40 18 -37 14 3 17 16 20 81 2 48 -1 77 -8 77 -5 0 -10 18 -10 40 0 22
5 40 10 40 6 0 10 -18 10 -40 0 -33 3 -40 20 -40 22 0 25 27 11 113 -9 52 -9
51 64 60 23 3 20 4 -12 6 -54 1 -57 21 -3 21 53 0 51 18 -2 23 l-43 4 43 1
c30 1 42 6 42 17 0 11 -12 15 -42 17 l-43 1 45 7 45 6 -45 5 c-26 3 2 6 67 7
84 2 115 6 127 17 22 23 26 19 26 -25 0 -38 2 -40 30 -40 28 0 30 -2 30 -40
l0 -40 -40 0 -40 0 0 -40 c0 -39 -1 -40 -34 -40 -32 0 -34 -2 -38 -38 l-3 -38
65 1 c86 2 90 0 90 -46 l0 -39 55 0 55 0 0 -40 0 -40 85 0 85 0 0 215 0 215
-22 1 c-22 1 -22 1 2 9 24 8 24 8 3 9 -29 1 -31 31 -3 31 20 0 20 7 20 640 l0
640 -380 0 -380 0 0 -25z m540 -971 c0 -42 26 -76 41 -53 6 9 9 0 9 -28 0 -39
2 -43 25 -43 23 0 25 -4 25 -40 0 -36 3 -40 25 -40 23 0 25 -4 25 -40 0 -34
-3 -40 -21 -40 -12 0 -41 -19 -65 -44 l-44 -43 0 -77 0 -76 -40 0 -40 0 0 40
c0 38 2 40 30 40 l30 0 0 84 c0 77 -2 85 -18 81 -37 -7 -44 9 -40 84 l3 71
-27 -4 c-27 -4 -28 -3 -28 40 0 32 -4 44 -15 44 -8 0 -15 7 -15 15 0 11 11 15
40 15 32 0 40 4 40 18 0 25 9 32 37 32 20 0 23 -5 23 -36z"/>
<path d="M3796 6370 c-16 -5 -33 -7 -37 -4 -5 2 -23 -2 -42 -10 -19 -7 -52
-17 -75 -21 -22 -3 -46 -13 -53 -21 -6 -8 -17 -14 -23 -14 -17 0 -66 -24 -66
-32 0 -3 -20 -18 -45 -33 -25 -14 -60 -42 -78 -62 -18 -20 -49 -53 -70 -74
-21 -21 -54 -71 -73 -111 -19 -40 -38 -80 -43 -88 -11 -20 -40 -119 -43 -150
-2 -14 -6 -27 -10 -30 -12 -10 -21 -320 -9 -320 6 0 11 -17 11 -37 0 -21 7
-51 15 -67 11 -22 15 -60 15 -145 -1 -182 28 -265 131 -369 70 -70 105 -116
130 -172 6 -14 23 -50 38 -80 24 -51 26 -65 26 -189 0 -99 -3 -135 -12 -139
-7 -2 -13 -10 -13 -18 0 -27 -41 -92 -93 -145 -59 -62 -147 -109 -242 -129
-43 -9 -73 -23 -105 -50 -25 -21 -59 -46 -77 -56 -17 -11 -72 -47 -122 -81
-51 -35 -96 -63 -101 -63 -6 0 -10 -4 -10 -9 0 -5 -18 -17 -40 -27 -22 -10
-40 -20 -40 -24 0 -3 -71 -41 -157 -85 -128 -65 -169 -91 -213 -136 -91 -92
-136 -142 -155 -174 -11 -16 -29 -42 -41 -57 -12 -15 -30 -46 -40 -68 -10 -22
-21 -40 -25 -40 -14 0 -48 -89 -70 -181 -12 -52 -25 -101 -30 -110 -8 -15 -20
-80 -39 -199 -4 -30 -15 -82 -24 -115 -33 -131 -58 -243 -66 -311 -5 -39 -16
-90 -24 -115 -8 -24 -17 -56 -20 -72 -2 -15 -23 -65 -45 -111 -55 -113 -56
-156 -2 -217 21 -24 42 -55 46 -69 13 -40 62 -93 107 -115 70 -34 82 -59 89
-193 9 -161 67 -421 103 -461 9 -10 16 -23 16 -29 0 -21 145 -161 183 -177 47
-19 111 -19 127 0 7 8 18 15 25 15 7 0 18 7 25 16 33 39 119 54 193 33 l37
-10 0 -57 c0 -31 -5 -75 -10 -97 -14 -62 -23 -283 -15 -378 l7 -87 1885 0
1885 0 -5 63 c-16 166 -26 240 -46 327 -26 111 -67 252 -85 295 -8 17 -20 59
-29 95 -25 108 -77 291 -89 313 -9 18 -29 82 -42 137 -2 8 -12 44 -21 80 -15
58 -27 161 -42 345 -4 55 -2 63 25 98 17 20 36 61 42 90 15 63 31 96 59 121
12 11 21 25 21 33 0 8 7 27 15 44 15 28 14 31 -10 66 -14 21 -25 42 -25 48 0
6 -8 20 -17 31 -37 41 -143 253 -143 285 0 10 -5 30 -11 46 -9 24 -25 88 -44
178 -2 11 -14 74 -26 140 -11 66 -27 131 -34 145 -7 14 -17 44 -21 65 -7 37
-85 201 -128 270 -26 41 -85 93 -123 110 -17 7 -34 21 -37 32 -4 10 -28 28
-54 40 -26 12 -56 30 -67 40 -44 39 -133 103 -144 103 -6 0 -28 10 -49 23 -20
13 -44 27 -52 30 -8 4 -37 21 -65 37 -62 37 -137 73 -195 95 -83 31 -105 40
-130 56 -14 9 -47 25 -75 34 -27 10 -57 24 -66 32 -8 7 -19 13 -23 13 -6 0
-83 33 -143 62 -36 18 -73 102 -73 166 1 72 15 145 29 150 6 2 11 10 11 17 0
16 32 79 43 83 4 2 7 9 7 15 0 6 7 18 15 27 8 8 21 41 29 72 8 31 20 66 26 77
6 12 13 45 16 73 3 29 9 55 13 58 4 3 10 27 13 53 3 26 12 56 21 65 8 9 20 34
27 55 6 20 15 37 19 37 4 0 19 22 34 50 23 42 27 62 27 130 0 54 -6 95 -19
127 -21 56 -37 188 -23 197 15 9 13 247 -2 287 -6 19 -19 48 -29 66 -9 18 -17
41 -17 53 0 11 -8 28 -19 39 -10 10 -25 38 -33 62 -9 24 -34 64 -57 88 -22 24
-41 48 -41 53 0 4 -7 8 -15 8 -8 0 -15 5 -15 11 0 16 -92 109 -107 109 -15 0
-70 37 -101 68 -20 20 -43 25 -119 26 -13 0 -23 3 -23 7 0 16 -58 25 -185 26
-77 1 -153 -2 -169 -7z"/>
<path d="M8223 6203 c-22 -4 -23 -9 -23 -83 l0 -79 -62 -4 c-45 -2 -33 -4 40
-5 l102 -2 0 90 c0 97 2 94 -57 83z"/>
<path d="M7920 5115 l0 -125 -40 0 c-22 0 -40 5 -40 10 0 6 -18 10 -40 10 -54
0 -51 -20 3 -21 l42 -1 -38 -8 c-53 -10 -58 -20 -9 -20 50 0 56 -17 10 -23
l-33 -4 33 -1 32 -2 0 -85 0 -85 120 0 c100 0 120 -2 120 -15 0 -8 -9 -15 -20
-15 -11 0 -20 -4 -20 -10 0 -5 -9 -10 -20 -10 -11 0 -20 5 -20 10 0 11 -119
12 -195 1 -51 -8 -49 -10 20 -24 11 -3 0 -6 -25 -7 -25 -1 -39 -4 -32 -7 7 -2
12 -22 12 -44 0 -37 2 -39 30 -39 l30 0 0 -80 0 -80 40 0 40 0 0 -200 0 -200
-40 0 -40 0 0 -40 0 -40 50 0 50 0 0 40 c0 33 3 40 20 40 17 0 20 -7 20 -40 0
-34 4 -41 25 -46 14 -3 36 -3 50 0 24 6 25 4 25 -34 l0 -40 -120 0 -120 0 0
-40 0 -40 40 0 c36 0 40 -2 40 -25 0 -18 5 -25 20 -25 11 0 20 5 20 10 0 6 26
9 63 8 61 -1 62 -1 17 -8 l-45 -7 43 -1 c55 -2 56 -26 2 -79 -38 -38 -39 -41
-42 -113 -3 -73 -4 -75 -30 -78 -27 -3 -28 -1 -28 37 l0 41 -50 0 -50 0 0 -46
c0 -38 -5 -49 -30 -71 -33 -27 -38 -43 -15 -43 11 0 15 -11 15 -40 0 -29 4
-40 15 -40 9 0 15 -9 15 -25 0 -18 -5 -25 -20 -25 -11 0 -20 5 -20 10 0 6 -9
10 -20 10 -18 0 -20 -7 -20 -65 l0 -65 40 0 c29 0 40 -4 40 -15 0 -11 -11 -15
-40 -15 -29 0 -40 4 -40 15 0 11 -11 15 -40 15 l-40 0 0 40 c0 36 -2 40 -25
40 -25 0 -25 1 -25 80 0 79 0 80 25 80 22 0 25 -4 25 -35 0 -19 5 -35 10 -35
6 0 10 -20 10 -45 0 -38 3 -45 20 -45 17 0 20 7 20 40 0 26 -5 40 -13 40 -9 0
-11 12 -9 39 4 36 2 38 -28 45 -18 3 -45 6 -61 6 -26 0 -29 -3 -29 -35 l0 -35
-80 0 c-47 0 -80 -4 -80 -10 0 -5 -18 -10 -40 -10 -29 0 -40 -4 -40 -15 0 -11
-11 -15 -40 -15 -29 0 -40 4 -40 15 0 8 -9 15 -20 15 -17 0 -20 -7 -20 -40 0
-33 -3 -40 -20 -40 -15 0 -20 -7 -20 -25 l0 -25 -110 0 c-67 0 -110 4 -110 10
0 6 -54 10 -141 10 l-141 0 6 23 c3 12 7 56 8 97 1 49 3 60 5 32 4 -40 6 -43
31 -40 26 3 27 5 30 81 2 42 7 77 12 77 6 0 10 7 10 15 0 11 -12 15 -42 17
l-43 1 45 7 45 7 -41 1 c-45 2 -54 14 -54 77 0 19 -7 35 -19 42 -17 11 -21 8
-30 -19 -14 -38 -14 -68 -1 -68 5 0 13 17 17 38 l8 37 5 -55 c3 -30 2 -68 -2
-85 -13 -60 -21 -305 -9 -305 6 0 11 -7 11 -15 0 -8 -4 -15 -9 -15 -5 0 -8
-369 -6 -872 3 -875 6 -1123 20 -1880 l8 -408 789 0 788 0 0 2275 0 2275 -22
1 c-22 1 -22 1 2 9 24 8 24 8 3 9 -29 1 -31 31 -3 31 18 0 20 7 20 66 0 56 -2
65 -16 60 -9 -3 -18 -6 -20 -6 -2 0 -4 -16 -4 -35 0 -34 -1 -35 -38 -35 -39 0
-97 29 -59 30 19 0 20 6 17 202 l-1 117 38 4 c21 3 -15 3 -79 1 l-118 -4 0
120 0 120 -40 0 -40 0 0 -125z"/>
<path d="M7680 4320 l0 -120 -40 0 -40 0 0 -120 0 -120 40 0 40 0 0 -80 0 -80
75 0 75 0 0 320 0 320 -75 0 -75 0 0 -120z"/>
<path d="M6960 3445 l0 -45 -40 0 -40 0 0 -40 0 -40 -42 -2 c-24 -1 -5 -5 42
-8 l85 -6 -82 -2 c-108 -3 -110 -22 -3 -22 47 0 80 -4 80 -10 0 -6 -35 -11
-82 -11 -93 -2 -80 -6 30 -11 l72 -4 0 54 c0 46 4 58 28 81 17 15 32 42 36 64
7 36 8 37 51 37 l45 0 0 -40 c0 -38 2 -40 30 -40 28 0 30 2 30 39 0 40 0 40
43 44 23 2 -31 4 -120 5 l-163 2 0 -45z"/>
</g>
</svg>
